<svg width="27" height="26" viewBox="0 0 27 26" fill="none" xmlns="http://www.w3.org/2000/svg">
<path d="M22.2571 7.456C19.3891 7.256 17.4101 6.24099 16.6031 3.35599C16.4306 2.87126 16.1751 2.42024 15.8481 2.02302C15.5385 1.56364 15.1184 1.18956 14.6262 0.935279C14.1341 0.681001 13.5859 0.554688 13.0321 0.568C12.175 0.590485 11.3506 0.902215 10.693 1.45249C10.0354 2.00277 9.58333 2.75925 9.4101 3.59901C9.13663 4.73726 8.4679 5.74145 7.52308 6.43262C6.57826 7.1238 5.41873 7.45703 4.2511 7.37299C2.5581 7.40299 0.995066 7.89501 0.336066 9.66401C-0.395934 11.63 0.55406 13.113 2.05506 14.244C3.05794 14.8577 3.80708 15.8111 4.16608 16.9307C4.52508 18.0503 4.47006 19.2616 4.01105 20.344C3.45205 21.992 3.49807 23.738 5.17707 24.898C5.84839 25.3727 6.6604 25.6067 7.48139 25.562C8.30238 25.5174 9.0842 25.1967 9.70008 24.652C12.0311 22.875 14.1721 23.052 16.4791 24.652C17.0997 25.1881 17.8814 25.5018 18.7004 25.5437C19.5195 25.5855 20.3291 25.353 21.0011 24.883C21.665 24.3956 22.1393 23.6931 22.3431 22.8951C22.547 22.0971 22.4678 21.2531 22.1191 20.507C21.1281 17.623 22.0681 15.599 24.3701 13.897C24.7731 13.6377 25.1197 13.2997 25.3889 12.9033C25.6582 12.5069 25.8446 12.0602 25.9371 11.59C26.3081 9.287 25.0981 7.656 22.2571 7.456ZM22.3971 12.573C22.172 12.8638 21.909 13.1231 21.6151 13.344C19.1441 14.944 18.6841 17.132 19.6081 19.796C19.7971 20.4297 19.9006 21.0859 19.9161 21.747C19.9861 22.832 19.4261 23.275 18.4161 22.905C17.2194 22.5989 16.0819 22.0961 15.0501 21.417C13.4991 20.117 12.2061 20.44 10.7371 21.395C9.87098 21.9455 8.96087 22.4234 8.01606 22.824C6.84306 23.334 6.17707 22.938 6.19807 21.088C8.21107 17.354 6.46006 14.382 3.06007 11.835C2.18007 11.176 2.40807 10.256 3.60407 9.89002C3.81288 9.81861 4.03145 9.77981 4.25208 9.775C8.15208 9.837 10.5791 8.065 11.8041 4.275C12.3731 2.517 13.4411 2.601 14.3631 4.188C14.4833 4.37292 14.579 4.57259 14.6481 4.78202C15.5781 8.21702 17.8721 9.74699 21.3691 9.72199C22.1301 9.71699 23.1231 9.64699 23.4691 10.58C23.8181 11.541 22.9111 11.996 22.3971 12.578V12.573Z" fill="#050505"/>
<path d="M12.9791 18.458C12.3406 18.4718 11.7088 18.3254 11.1414 18.0321C10.574 17.7388 10.0891 17.308 9.73116 16.779C9.61779 16.6564 9.53003 16.5123 9.47304 16.3553C9.41605 16.1984 9.39096 16.0316 9.39925 15.8648C9.40754 15.698 9.44905 15.5345 9.52132 15.384C9.5936 15.2334 9.69518 15.0988 9.82015 14.988C9.92874 14.8861 10.0572 14.8078 10.1975 14.7579C10.3378 14.708 10.4869 14.6876 10.6354 14.6981C10.7839 14.7085 10.9287 14.7495 11.0606 14.8185C11.1926 14.8875 11.3089 14.983 11.4022 15.099C12.5732 16.289 13.6601 16.228 14.8021 15.055C14.8977 14.9407 15.0172 14.8488 15.1521 14.7857C15.2871 14.7227 15.4342 14.69 15.5832 14.69C15.7321 14.69 15.8792 14.7227 16.0142 14.7857C16.1491 14.8488 16.2686 14.9407 16.3642 15.055C16.5778 15.2637 16.707 15.5437 16.7271 15.8417C16.7472 16.1396 16.6568 16.4345 16.4732 16.67C16.0992 17.2487 15.5793 17.7186 14.9659 18.0325C14.3525 18.3464 13.6673 18.4932 12.9791 18.458Z" fill="#970000"/>
</svg>
