<svg width="26" height="32" viewBox="0 0 26 32" fill="none" xmlns="http://www.w3.org/2000/svg">
<path d="M22.6753 10.1461L25.385 0.560312C25.4099 0.4726 25.407 0.379322 25.3766 0.293365C25.3461 0.207407 25.2898 0.133014 25.2153 0.080463C25.1408 0.027912 25.0518 -0.000204814 24.9606 1.12322e-06C24.8694 0.00020706 24.7806 0.0287253 24.7063 0.0816124L16.5818 5.84811C16.5032 5.90396 16.445 5.98409 16.4164 6.07618C16.3877 6.16828 16.3901 6.26723 16.4232 6.35784C16.4562 6.44844 16.5182 6.52568 16.5994 6.57767C16.6806 6.62966 16.7767 6.65353 16.8728 6.6456L20.4422 6.35201C20.5453 6.34311 20.6483 6.37088 20.7329 6.43041C20.8176 6.48995 20.8785 6.57744 20.905 6.67748L21.8264 10.1389C21.8511 10.2322 21.9058 10.3147 21.982 10.3738C22.0582 10.433 22.1517 10.4654 22.2481 10.4663C22.3446 10.4671 22.4386 10.4362 22.5158 10.3784C22.593 10.3205 22.649 10.2389 22.6753 10.1461Z" fill="#F22F46"/>
<path d="M11.9004 31.3308C9.66506 31.3308 7.47991 30.668 5.62128 29.4261C3.76265 28.1842 2.31403 26.419 1.45859 24.3539C0.603163 22.2887 0.379344 20.0162 0.815439 17.8238C1.25153 15.6314 2.32796 13.6175 3.90859 12.0369C5.48922 10.4563 7.50307 9.37983 9.69547 8.94373C11.8879 8.50764 14.1604 8.73146 16.2255 9.58689C18.2907 10.4423 20.0559 11.8909 21.2978 13.7496C22.5397 15.6082 23.2025 17.7934 23.2025 20.0287C23.199 23.0251 22.0071 25.8978 19.8883 28.0166C17.7695 30.1354 14.8968 31.3273 11.9004 31.3308ZM11.9004 12.1171C10.3356 12.1171 8.806 12.5811 7.50493 13.4504C6.20387 14.3198 5.18981 15.5554 4.591 17.0011C3.99218 18.4467 3.83551 20.0375 4.14078 21.5722C4.44605 23.1069 5.19956 24.5166 6.30603 25.6231C7.41249 26.7296 8.82221 27.4831 10.3569 27.7883C11.8916 28.0936 13.4824 27.9369 14.9281 27.3381C16.3737 26.7393 17.6094 25.7253 18.4787 24.4242C19.3481 23.1231 19.8121 21.5935 19.8121 20.0287C19.8104 17.9309 18.9764 15.9194 17.493 14.4359C16.0097 12.9525 13.9983 12.1183 11.9004 12.1165V12.1171Z" fill="#F22F46"/>
</svg>
