<svg width="1124" height="1080" viewBox="0 0 1124 1080" fill="none" xmlns="http://www.w3.org/2000/svg">
<rect width="1124" height="1080" fill="#F22F46"/>
<mask id="mask0_1809_28513" style="mask-type:alpha" maskUnits="userSpaceOnUse" x="0" y="0" width="1124" height="1080">
<rect width="1124" height="1080" fill="#F22F46"/>
</mask>
<g mask="url(#mask0_1809_28513)">
<g opacity="0.9">
<g opacity="0.65">
<g filter="url(#filter0_b_1809_28513)">
<ellipse cx="32" cy="26" rx="470" ry="476" fill="white" fill-opacity="0.16"/>
</g>
<g filter="url(#filter1_b_1809_28513)">
<ellipse cx="32.5" cy="25.5" rx="331.5" ry="335.5" fill="white" fill-opacity="0.26"/>
</g>
<g filter="url(#filter2_b_1809_28513)">
<ellipse cx="32.5" cy="26" rx="213.5" ry="217" fill="white" fill-opacity="0.45"/>
</g>
</g>
</g>
<g opacity="0.9">
<g filter="url(#filter3_b_1809_28513)">
<ellipse cx="645.836" cy="871.811" rx="542.836" ry="550.189" fill="white" fill-opacity="0.16"/>
</g>
<g filter="url(#filter4_b_1809_28513)">
<ellipse cx="645.836" cy="871.811" rx="382.796" ry="387.554" fill="white" fill-opacity="0.26"/>
</g>
<g filter="url(#filter5_b_1809_28513)">
<ellipse cx="646.269" cy="871.378" rx="246.547" ry="250.44" fill="white" fill-opacity="0.45"/>
</g>
</g>
<g opacity="0.7">
<g opacity="0.2" filter="url(#filter6_d_1809_28513)">
<path d="M1065.67 462.472L1116.53 337.853C1116.99 336.712 1117.09 335.455 1116.82 334.255C1116.54 333.055 1115.89 331.971 1114.97 331.153C1114.05 330.335 1112.9 329.823 1111.68 329.688C1110.46 329.553 1109.22 329.801 1108.14 330.399L990.412 395.551C989.272 396.182 988.371 397.17 987.848 398.364C987.324 399.557 987.206 400.889 987.513 402.156C987.819 403.422 988.533 404.553 989.545 405.374C990.556 406.195 991.809 406.66 993.111 406.699L1041.45 408.151C1042.84 408.188 1044.18 408.716 1045.23 409.643C1046.27 410.571 1046.96 411.838 1047.16 413.221L1054.29 461.092C1054.48 462.381 1055.09 463.572 1056.02 464.481C1056.96 465.391 1058.16 465.968 1059.45 466.125C1060.75 466.282 1062.06 466.009 1063.18 465.349C1064.3 464.689 1065.18 463.678 1065.67 462.472V462.472Z" fill="white"/>
</g>
</g>
<ellipse opacity="0.7" cx="860" cy="974" rx="285" ry="586" fill="url(#paint0_radial_1809_28513)"/>
</g>
<defs>
<filter id="filter0_b_1809_28513" x="-482" y="-494" width="1028" height="1040" filterUnits="userSpaceOnUse" color-interpolation-filters="sRGB">
<feFlood flood-opacity="0" result="BackgroundImageFix"/>
<feGaussianBlur in="BackgroundImage" stdDeviation="22"/>
<feComposite in2="SourceAlpha" operator="in" result="effect1_backgroundBlur_1809_28513"/>
<feBlend mode="normal" in="SourceGraphic" in2="effect1_backgroundBlur_1809_28513" result="shape"/>
</filter>
<filter id="filter1_b_1809_28513" x="-343" y="-354" width="751" height="759" filterUnits="userSpaceOnUse" color-interpolation-filters="sRGB">
<feFlood flood-opacity="0" result="BackgroundImageFix"/>
<feGaussianBlur in="BackgroundImage" stdDeviation="22"/>
<feComposite in2="SourceAlpha" operator="in" result="effect1_backgroundBlur_1809_28513"/>
<feBlend mode="normal" in="SourceGraphic" in2="effect1_backgroundBlur_1809_28513" result="shape"/>
</filter>
<filter id="filter2_b_1809_28513" x="-225" y="-235" width="515" height="522" filterUnits="userSpaceOnUse" color-interpolation-filters="sRGB">
<feFlood flood-opacity="0" result="BackgroundImageFix"/>
<feGaussianBlur in="BackgroundImage" stdDeviation="22"/>
<feComposite in2="SourceAlpha" operator="in" result="effect1_backgroundBlur_1809_28513"/>
<feBlend mode="normal" in="SourceGraphic" in2="effect1_backgroundBlur_1809_28513" result="shape"/>
</filter>
<filter id="filter3_b_1809_28513" x="59" y="277.622" width="1173.67" height="1188.38" filterUnits="userSpaceOnUse" color-interpolation-filters="sRGB">
<feFlood flood-opacity="0" result="BackgroundImageFix"/>
<feGaussianBlur in="BackgroundImage" stdDeviation="22"/>
<feComposite in2="SourceAlpha" operator="in" result="effect1_backgroundBlur_1809_28513"/>
<feBlend mode="normal" in="SourceGraphic" in2="effect1_backgroundBlur_1809_28513" result="shape"/>
</filter>
<filter id="filter4_b_1809_28513" x="219.039" y="440.257" width="853.593" height="863.109" filterUnits="userSpaceOnUse" color-interpolation-filters="sRGB">
<feFlood flood-opacity="0" result="BackgroundImageFix"/>
<feGaussianBlur in="BackgroundImage" stdDeviation="22"/>
<feComposite in2="SourceAlpha" operator="in" result="effect1_backgroundBlur_1809_28513"/>
<feBlend mode="normal" in="SourceGraphic" in2="effect1_backgroundBlur_1809_28513" result="shape"/>
</filter>
<filter id="filter5_b_1809_28513" x="355.722" y="576.939" width="581.094" height="588.879" filterUnits="userSpaceOnUse" color-interpolation-filters="sRGB">
<feFlood flood-opacity="0" result="BackgroundImageFix"/>
<feGaussianBlur in="BackgroundImage" stdDeviation="22"/>
<feComposite in2="SourceAlpha" operator="in" result="effect1_backgroundBlur_1809_28513"/>
<feBlend mode="normal" in="SourceGraphic" in2="effect1_backgroundBlur_1809_28513" result="shape"/>
</filter>
<filter id="filter6_d_1809_28513" x="963.346" y="319.652" width="177.624" height="184.516" filterUnits="userSpaceOnUse" color-interpolation-filters="sRGB">
<feFlood flood-opacity="0" result="BackgroundImageFix"/>
<feColorMatrix in="SourceAlpha" type="matrix" values="0 0 0 0 0 0 0 0 0 0 0 0 0 0 0 0 0 0 127 0" result="hardAlpha"/>
<feOffset dy="14"/>
<feGaussianBlur stdDeviation="12"/>
<feComposite in2="hardAlpha" operator="out"/>
<feColorMatrix type="matrix" values="0 0 0 0 0.875 0 0 0 0 0.142188 0 0 0 0 0.228622 0 0 0 1 0"/>
<feBlend mode="normal" in2="BackgroundImageFix" result="effect1_dropShadow_1809_28513"/>
<feBlend mode="normal" in="SourceGraphic" in2="effect1_dropShadow_1809_28513" result="shape"/>
</filter>
<radialGradient id="paint0_radial_1809_28513" cx="0" cy="0" r="1" gradientUnits="userSpaceOnUse" gradientTransform="translate(860 974) rotate(86.8477) scale(441.488 287.469)">
<stop stop-color="#160003"/>
<stop offset="1" stop-color="#C80018" stop-opacity="0"/>
</radialGradient>
</defs>
</svg>
